<?xml version="1.0" encoding="UTF-8"?>
<svg enable-background="new 0 0 512 512" version="1.1" viewBox="0 0 512 512" xml:space="preserve" xmlns="http://www.w3.org/2000/svg">
<style type="text/css">
	.st0{fill:#FFFFFF;}
</style>
	<path class="st0" d="m400.7 253.7 51.6 49.1c0.6 0.6 1 1.1 1.2 1.6s0.3 0.8 0.3 1.1c0 0.9-0.3 1.7-1 2.3-0.7 0.7-1.4 1-2.3 1h-9.4c-1.4 0-2.6-0.3-3.5-0.8-0.9-0.6-1.6-1-2-1.4l-42.8-40.8v39c0 1.1-0.4 2.1-1.2 2.9s-1.8 1.2-2.9 1.2h-6.2c-1.1 0-2.1-0.4-2.9-1.2s-1.2-1.8-1.2-2.9v-97.7c0-1.1 0.4-2.1 1.2-2.9s1.8-1.2 2.9-1.2h6.2c1.1 0 2.1 0.4 2.9 1.2s1.2 1.8 1.2 2.9v35.2l40.4-37c0.4-0.4 1.1-0.9 2-1.4 0.9-0.6 2.1-0.8 3.5-0.8h8.8c0.9 0 1.7 0.3 2.3 1 0.7 0.7 1 1.4 1 2.3 0 0.3-0.1 0.7-0.3 1.1-0.2 0.5-0.6 1-1.2 1.6l-48.6 44.6z"/>
	<path class="st0" d="m274 309.7c-1.1 0-2.1-0.4-2.9-1.2s-1.2-1.8-1.2-2.9v-60.5c0-6.3 0.8-12 2.3-17.2 1.6-5.2 4-9.7 7.3-13.5s7.5-6.8 12.6-8.9 11.3-3.2 18.4-3.2c7.3 0 13.5 1.1 18.6 3.2s9.4 5.1 12.6 8.9c3.3 3.8 5.7 8.3 7.2 13.5s2.3 10.9 2.3 17.2v60.5c0 1.1-0.4 2.1-1.2 2.9s-1.8 1.2-2.9 1.2h-6.1c-1.1 0-2.1-0.4-2.9-1.2s-1.2-1.8-1.2-2.9v-61.2c0-9.9-2.3-17.2-7-22-4.6-4.8-11.1-7.2-19.4-7.2s-14.7 2.4-19.4 7.2-7 12.1-7 22v61.2c0 1.1-0.4 2.1-1.2 2.9s-1.8 1.2-2.9 1.2h-6z"/>
	<path class="st0" d="m238.9 202.9c1.1 0 2.1 0.4 2.9 1.2s1.2 1.8 1.2 2.9v60.5c0 6.3-0.8 12-2.3 17.2-1.6 5.2-4 9.7-7.3 13.5s-7.5 6.8-12.6 8.9-11.3 3.2-18.4 3.2c-7.3 0-13.5-1.1-18.6-3.2s-9.4-5.1-12.6-8.9c-3.3-3.8-5.7-8.3-7.2-13.5s-2.3-10.9-2.3-17.2v-60.5c0-1.1 0.4-2.1 1.2-2.9s1.8-1.2 2.9-1.2h6.2c1.1 0 2.1 0.4 2.9 1.2s1.2 1.8 1.2 2.9v61.2c0 9.9 2.3 17.2 7 22 4.6 4.8 11.1 7.2 19.4 7.2s14.7-2.4 19.4-7.2 7-12.1 7-22v-61.2c0-1.1 0.4-2.1 1.2-2.9s1.8-1.2 2.9-1.2h5.9z"/>
	<path class="st0" d="m63.7 308.9c-1.1 0-2.1-0.4-2.9-1.2s-1.2-1.8-1.2-2.9v-97.7c0-1.1 0.4-2.1 1.2-2.9s1.8-1.2 2.9-1.2h40.5c6.4 0 11.8 1 16 2.9 4.2 2 7.6 4.4 10.1 7.3s4.3 6 5.4 9.3 1.6 6.3 1.6 8.9c0 3.3-0.5 6.3-1.5 8.8s-2.2 4.6-3.5 6.4c-1.3 1.7-2.7 3.1-4 4.1s-2.3 1.7-2.9 2.1c3.8 2.6 7.2 6.1 10.1 10.4s4.3 9.3 4.3 15c0 3.8-0.7 7.6-2.1 11.2s-3.5 6.9-6.3 9.8-6.3 5.3-10.5 7c-4.2 1.8-9 2.6-14.5 2.6l-42.7 0.1zm10.3-92.2v30.5h28.7c6.8 0 11.8-1.3 15.2-3.9s5.1-6.4 5.1-11.3-1.7-8.7-5.1-11.3-8.4-3.9-15.2-3.9h-28.7v-0.1zm0 44.1v34.5h30.9c3.3 0 6.3-0.5 8.9-1.4s4.7-2.2 6.4-3.8 3-3.4 3.9-5.4 1.3-4.2 1.3-6.5c0-2.2-0.4-4.4-1.2-6.5s-2-4-3.7-5.6-3.8-2.9-6.4-3.9-5.6-1.4-9.2-1.4h-30.9z"/>
</svg>
